<svg width="192" height="192" viewBox="0 0 192 192" fill="none" xmlns="http://www.w3.org/2000/svg">
<rect width="192" height="192" fill="#F2EDE3"/>
<path fill-rule="evenodd" clip-rule="evenodd" d="M105.412 33.9152C96.6641 33.9152 88.6062 37.5677 82.0317 43.5857C78.6136 46.7132 75.8927 50.1135 73.5871 53.7524C74.9015 53.3414 76.4376 53.1197 78.0365 53.1197C79.7398 53.1197 81.3718 53.3713 82.7403 53.8352C83.6503 52.5104 84.6901 51.2596 85.8503 50.0993L85.8555 50.0942C90.688 45.3006 97.0892 42.666 103.89 42.666H103.986C110.827 42.6855 117.249 45.3793 122.062 50.2313C126.876 55.0843 129.509 61.5242 129.49 68.3616L129.49 68.3668C129.454 74.6542 125.846 84.947 117.467 93.2753C121.295 94.1313 125.018 95.3468 128.35 96.7891C132.695 98.6696 136.494 100.987 138.983 103.497L138.986 103.499C143.851 108.423 146.522 114.952 146.502 121.862L146.502 121.865C146.444 136.124 134.837 147.693 120.576 147.693H120.486L120.479 147.693C115.755 147.674 109.168 146.112 100.502 140.435V150.101C107.172 154.044 114.622 156.66 122.742 156.462L122.787 156.462H122.913C141.301 156.462 156.308 141.524 156.376 123.119C156.411 114.179 152.959 105.763 146.666 99.4182C142.548 95.2836 137.499 92.4126 132.006 90.8627C131.417 90.6967 130.952 90.2449 130.769 89.6613C130.586 89.0778 130.709 88.4413 131.098 87.9688C135.768 82.2851 138.532 75.095 138.567 67.171C138.601 58.3223 135.185 49.9968 128.946 43.7062C122.71 37.4185 114.403 33.9505 105.553 33.9152H105.412ZM100.502 154.267V158.998C100.502 159.999 99.691 160.81 98.6904 160.81H85.048C85.0146 160.81 84.9814 160.809 84.9484 160.807C84.9154 160.809 84.8821 160.81 84.8486 160.81H71.2062C71.2002 160.81 71.1941 160.81 71.1881 160.81C71.1821 160.81 71.176 160.81 71.17 160.81H57.5276C56.527 160.81 55.7158 159.999 55.7158 158.998V127.694C49.2082 125.32 41.8867 123.263 33.4621 121.606C32.8062 121.477 32.2747 120.997 32.0792 120.358C31.8838 119.719 32.0561 119.024 32.5276 118.55C43.7061 107.318 50.1542 96.4727 54.9069 86.2705C55.0828 85.8929 55.3723 85.6044 55.7158 85.4268V42.213C55.7158 41.203 56.1869 40.3797 56.7546 39.7855C57.314 39.2 58.0373 38.7545 58.792 38.4193C60.3063 37.7469 62.2704 37.3757 64.3397 37.3757C66.409 37.3757 68.3731 37.7469 69.8874 38.4193C70.6421 38.7545 71.3654 39.2 71.9248 39.7855C72.4925 40.3797 72.9636 41.203 72.9636 42.213V48.2599C74.8731 45.6909 77.048 43.2343 79.5854 40.9126C86.7076 34.3935 95.6076 30.2917 105.412 30.2917H105.564C115.373 30.3299 124.603 34.1813 131.519 41.1546C138.433 48.1258 142.228 57.3739 142.19 67.1859C142.156 75.0218 139.708 82.2308 135.496 88.1759C140.596 90 145.295 92.9066 149.235 96.8631L149.238 96.8657C156.207 103.892 160.038 113.23 160 123.132C159.924 143.534 143.297 160.085 122.913 160.085H122.81C114.608 160.28 107.127 157.874 100.502 154.267ZM69.3401 114.15V42.3277C69.331 42.3168 69.3194 42.3038 69.3049 42.2886C69.173 42.1506 68.8964 41.9439 68.4169 41.731C67.4627 41.3073 66.0207 40.9992 64.3397 40.9992C62.6587 40.9992 61.2167 41.3073 60.2625 41.731C59.783 41.9439 59.5064 42.1506 59.3745 42.2886C59.36 42.3038 59.3485 42.3168 59.3393 42.3277V111.189C62.6693 111.775 66.0666 112.827 69.3401 114.15ZM55.7158 110.743V92.8526C51.4443 101.127 45.8162 109.804 37.4082 118.72C50.2434 121.49 60.5562 125.22 69.3945 129.622V122.981C69.3945 122.893 69.4006 122.807 69.4126 122.723V118.108C64.0681 115.79 58.5235 114.271 53.6803 114.302C52.6798 114.309 51.8633 113.503 51.8568 112.502C51.8503 111.502 52.6561 110.685 53.6567 110.679C54.3356 110.674 55.0226 110.696 55.7158 110.743ZM73.0361 117.31C73.0858 117.067 73.084 116.821 73.0361 116.586V58.0717C73.0452 58.0609 73.0568 58.0479 73.0713 58.0327C73.2032 57.8946 73.4798 57.688 73.9593 57.4751C74.9135 57.0514 76.3555 56.7432 78.0365 56.7432C79.7175 56.7432 81.1595 57.0514 82.1137 57.4751C82.5932 57.688 82.8698 57.8946 83.0016 58.0327C83.0162 58.0479 83.0277 58.0609 83.0369 58.0717V157.186H73.0179V132.86C73.0428 132.687 73.0423 132.514 73.0179 132.345V123.238C73.0299 123.154 73.0361 123.068 73.0361 122.981V117.31ZM69.3582 133.668C66.2331 132.05 62.9118 130.516 59.3393 129.082V157.186H69.3582V133.668ZM86.8597 157.186V68.3963C86.8662 68.3508 86.8709 68.3048 86.8739 68.2584C86.8836 68.2467 86.8964 68.2321 86.9131 68.2147C87.045 68.0766 87.3215 67.87 87.801 67.6571C88.7552 67.2334 90.1972 66.9252 91.8782 66.9252C93.5592 66.9252 95.0012 67.2334 95.9554 67.6571C96.4349 67.87 96.7115 68.0766 96.8434 68.2147C96.8579 68.2299 96.8695 68.2429 96.8786 68.2537V157.186H86.8597ZM96.9092 68.2949L96.9075 68.2919L96.9092 68.2949ZM86.6604 64.2065V57.9571C86.6604 57.0677 86.2951 56.3231 85.8202 55.7523C86.5806 54.6623 87.4458 53.6286 88.4099 52.6642C92.5633 48.5455 98.0462 46.2894 103.89 46.2894H103.978C109.854 46.3069 115.353 48.6134 119.489 52.7832C123.625 56.9521 125.882 62.4685 125.867 68.3483C125.833 74.1374 121.987 84.9505 112.418 92.9857C111.875 93.4417 111.648 94.1726 111.837 94.856C112.026 95.5395 112.596 96.0499 113.296 96.162C118.064 96.926 122.815 98.3417 126.911 100.114C131.031 101.898 134.37 103.992 136.41 106.048C140.602 110.291 142.895 115.899 142.879 121.85C142.828 134.115 132.84 144.069 120.576 144.069H120.489C116.302 144.052 109.748 142.571 100.502 136.054V68.1391C100.502 67.1291 100.031 66.3057 99.4633 65.7116C98.904 65.1261 98.1806 64.6805 97.4259 64.3454C95.9116 63.673 93.9475 63.3017 91.8782 63.3017C89.9561 63.3017 88.1248 63.622 86.6604 64.2065ZM83.0675 58.113L83.0658 58.1099L83.0675 58.113ZM73.0055 58.113L73.0072 58.1099L73.0055 58.113ZM59.3087 42.3689L59.3104 42.3659L59.3087 42.3689ZM69.3707 42.3689L69.369 42.3659L69.3707 42.3689Z" fill="#241E1C"/>
</svg>
