<svg width="121" height="40" viewBox="0 0 121 40" fill="none" xmlns="http://www.w3.org/2000/svg">
<g opacity="0.75">
<path d="M118.61 10.9766C118.17 12.6482 116.453 23.1935 114.743 26.8755C114.666 27.0449 114.442 27.0218 114.388 26.8369C114.388 26.8369 110.052 12.9024 109.897 12.471C109.69 11.8779 109.389 11.0152 108.627 10.9689C108.226 10.9458 107.117 10.9689 104.798 10.9689L112.701 33.3536C112.701 33.3536 113.11 33.3844 111.546 34.8172C109.643 36.5657 104.929 35.3564 103.766 35.1099C102.472 34.8249 102.634 35.7723 102.634 35.7723C102.634 35.7723 102.634 39.2232 102.634 39.4774C102.834 39.5313 109.844 40.9179 112.108 36.9509C116.422 29.3943 120.951 11.5698 120.951 11.5698C121.051 11.2771 120.997 10.9766 120.789 10.9766" fill="#241E1C"/>
<path d="M27.1605 5.60771C27.6843 6.72463 26.9987 8.09575 25.774 8.66577C24.5107 9.25119 23.1088 8.92767 22.5696 7.77993C22.0458 6.66301 22.7082 5.29959 23.933 4.72958C25.1962 4.14416 26.629 4.45227 27.1682 5.60001" fill="#241E1C"/>
<path d="M9.60553 28.3467C13.1335 26.914 14.9282 24.5107 14.9591 21.2909C14.9822 18.2174 12.9486 15.6523 10.7071 16.0067C9.93676 16.3995 4.31363 17.9324 4.31363 17.9324L4.2366 29.1632C4.2366 29.1632 7.37939 29.248 9.61324 28.339M10.553 15.221C10.553 15.221 14.6355 13.1951 13.8652 8.2113C13.1566 3.64347 7.70291 3.4586 4.39836 3.66658L4.24431 15.9912L10.553 15.221ZM7.70291 30.4419L0.0154058 30.4034L0 2.15681C0 2.15681 3.19671 2.04127 7.82616 2.04127C14.2966 2.04127 17.6166 5.37663 17.7167 8.10346C17.8477 11.7238 15.9681 13.9038 11.7238 15.4443L12.1552 15.4212C15.9219 15.3211 19.7041 17.5318 19.7041 21.391C19.7041 28.2389 12.6944 30.5729 7.71062 30.4419" fill="#241E1C"/>
<path d="M76.6517 20.2279C76.3667 17.0697 77.006 14.6432 78.1152 13.1951C78.6236 12.5326 79.3862 12.1013 80.2181 12.0011C82.9141 11.6699 84.4547 13.9962 85.1788 15.5291C85.2635 15.7139 85.1788 15.9373 85.0016 16.0298L76.6517 20.2356V20.2279ZM76.8057 22.6389C76.7287 22.0534 76.6979 21.4603 76.6671 20.9365L86.6424 17.2853C88.1367 16.7153 88.5219 16.1068 88.26 15.0053C88.2446 14.9437 88.2369 14.9128 88.2369 14.9128C88.2369 14.9128 86.419 9.97527 81.05 10.9073C79.0473 11.254 77.3757 11.8856 75.9507 13.1951C73.9557 15.0361 71.7141 18.1096 72.3997 22.3307C73.2855 27.7613 77.4374 30.388 81.2888 30.388C85.1403 30.388 87.7978 27.2298 88.8223 24.2719C88.8839 23.8482 88.4525 23.7481 88.2754 23.9946C87.6052 24.942 86.1879 27.1297 83.4533 27.5456C79.5788 28.1387 77.3372 26.9371 76.798 22.6466" fill="#241E1C"/>
<path d="M42.4893 10.838C40.5173 10.9073 39.3619 11.5313 38.3913 12.2938C37.5286 12.9717 36.5734 13.7959 35.572 14.9051L35.5874 10.6762C35.2485 10.7687 34.9096 10.838 34.9096 10.838L33.084 11.2694C33.084 11.2694 31.659 11.485 31.659 12.7483C31.659 12.8253 31.605 30.1338 31.605 30.1338L35.5643 30.1492V15.8449C37.0818 14.5739 38.5068 13.819 39.8549 13.6804C42.7743 13.3722 43.7602 14.7588 43.7602 17.5626V30.1338H47.6425L47.812 16.2531C47.812 12.6405 45.8323 10.7224 42.4815 10.838H42.4893Z" fill="#241E1C"/>
<path d="M100.893 10.8534C99.7759 10.8534 98.8823 11.3156 98.0735 12.1937C97.3802 12.887 96.5252 14.0578 95.9475 15.0515V10.6762C95.6933 10.7533 95.2697 10.838 95.2697 10.838L93.4441 11.2694C93.4441 11.2694 92.019 11.485 92.019 12.7483L91.9112 30.1184L95.8628 30.103L95.9321 15.5522C96.7409 14.8204 97.9503 14.027 98.7976 13.9962C99.4909 13.9731 99.876 14.0578 100.446 14.4353C100.739 14.6355 101.139 14.5739 101.347 14.2889L103.558 11.3002C102.803 10.992 101.678 10.838 100.877 10.838L100.893 10.8534Z" fill="#241E1C"/>
<path d="M27.0218 10.6685C26.6829 10.761 26.3363 10.8303 26.3363 10.8303L24.4953 11.2617C24.4953 11.2617 23.0548 11.4773 23.0548 12.7406C23.0548 13.3491 23.0548 30.1184 23.0548 30.1184H26.991L27.0141 10.6608L27.0218 10.6685Z" fill="#241E1C"/>
<path d="M69.0104 0C68.7408 0.0616233 68.3094 0.161761 68.3094 0.161761L66.4222 0.593124C66.4222 0.593124 64.9433 0.808806 64.9433 2.07208L64.9664 11.3002C64.4272 11.1461 62.7633 10.838 61.8005 10.838C56.0849 10.838 51.0241 14.6818 51.0241 21.2446C51.0241 26.7753 54.4596 30.388 58.8657 30.388C60.2907 30.388 61.916 29.8873 62.8404 29.2326C63.9188 28.5008 64.5042 27.8923 65.0049 27.3145V30.1261H68.8563V29.9258L68.8872 30.1338L69.0104 0ZM64.9664 26.7368C63.9265 27.3145 62.4937 27.8537 60.8299 27.8537C57.2789 27.8537 55.3069 24.7803 55.3069 19.8658C55.3069 14.9514 57.8412 11.693 60.9069 11.6853C62.486 11.6853 63.8803 12.9178 64.9664 13.5263V26.7368Z" fill="#241E1C"/>
</g>
</svg>
